<svg width="16" height="17" viewBox="0 0 16 17" fill="none" xmlns="http://www.w3.org/2000/svg">
<path d="M5.30683 9.32697L11.3815 15.3478C11.4515 15.4175 11.5363 15.4656 11.6276 15.4872C11.719 15.5087 11.8137 15.5031 11.9026 15.4707C11.9914 15.4385 12.0713 15.3806 12.1344 15.3029C12.1975 15.2252 12.2417 15.1302 12.2625 15.0274L14.9984 1.59275C15.0011 1.57924 15.0004 1.56524 14.9965 1.55209C14.9927 1.539 14.9858 1.52732 14.9765 1.51837C14.9672 1.50936 14.956 1.5034 14.9439 1.50108C14.9319 1.49877 14.9195 1.50017 14.9082 1.50522L1.26869 7.53972C1.18399 7.57654 1.11217 7.64344 1.06403 7.73036C1.01585 7.81728 0.993878 7.91949 1.00147 8.02169C1.00906 8.12389 1.04578 8.22061 1.10608 8.29718C1.16639 8.37382 1.24704 8.42629 1.33599 8.44668L5.30683 9.32697Z" stroke="#268BFF" stroke-width="1.2" stroke-linecap="round" stroke-linejoin="round"/>
<path d="M5.30664 9.32707L14.9584 1.50684" stroke="#268BFF" stroke-width="1.2" stroke-linecap="round" stroke-linejoin="round"/>
<path d="M8.29282 12.2877L6.23272 14.7042C6.15826 14.7915 6.06247 14.8517 5.95754 14.8771C5.85265 14.9024 5.74346 14.8917 5.64396 14.8464C5.54446 14.8012 5.45918 14.7233 5.39909 14.6229C5.339 14.5224 5.3068 14.404 5.30664 14.2827V9.32715" stroke="#268BFF" stroke-width="1.2" stroke-linecap="round" stroke-linejoin="round"/>
</svg>
