<svg width="16" height="13" viewBox="0 0 16 13" fill="none" xmlns="http://www.w3.org/2000/svg">
<path fill-rule="evenodd" clip-rule="evenodd" d="M15.6235 1.33274C15.7421 0.862988 15.6235 0.521352 15.0982 0.521352H13.3528C12.9123 0.521352 12.7089 0.820285 12.5903 1.14057C12.5903 1.14057 11.6922 3.87366 10.4383 5.64591C10.0316 6.15836 9.84517 6.32918 9.62488 6.32918C9.50627 6.32918 9.35376 6.15836 9.35376 5.68861V1.31139C9.35376 0.756227 9.2182 0.5 8.8454 0.5H6.10028C5.82915 0.5 5.6597 0.756226 5.6597 1.01245C5.6597 1.54626 6.28667 1.67438 6.35446 3.16904V6.41459C6.35446 7.11922 6.25279 7.24733 6.0325 7.24733C5.43942 7.24733 3.99907 4.49288 3.13486 1.35409C2.96541 0.734875 2.79596 0.5 2.35539 0.5H0.593083C0.0847261 0.5 0 0.798931 0 1.11922C0 1.69573 0.593083 4.59964 2.76207 8.44306C4.20241 11.0694 6.25279 12.4786 8.09981 12.4786C9.2182 12.4786 9.35376 12.1584 9.35376 11.6246V9.63879C9.35376 8.99822 9.45543 8.89146 9.81128 8.89146C10.0655 8.89146 10.523 9.06228 11.5566 10.3221C12.7428 11.8167 12.9461 12.5 13.607 12.5H15.3524C15.8607 12.5 16.098 12.1797 15.9624 11.5605C15.8099 10.9413 15.2337 10.0445 14.4882 8.97687C14.0815 8.379 13.4714 7.71708 13.2851 7.3968C13.0309 6.96975 13.0987 6.79893 13.2851 6.41459C13.2681 6.41459 15.4032 2.61388 15.6235 1.33274Z" fill="#4680C2"/>
</svg>
