<svg width="78" height="61" viewBox="0 0 78 61" fill="none" xmlns="http://www.w3.org/2000/svg">
<circle cx="48" cy="30" r="29.5" stroke="white" stroke-dasharray="2 2"/>
<circle cx="30" cy="31" r="30" fill="#A13281"/>
<path d="M35 44.4375H25C17.8125 44.4375 17.8125 40.625 17.8125 37.25V36C17.8125 33.2125 17.8125 30.0625 23.75 30.0625C25.2375 30.0625 25.7875 30.425 26.5625 31C26.6 31.0375 26.65 31.0625 26.6875 31.1125L27.9625 32.4625C29.0375 33.6 30.9875 33.6 32.0625 32.4625L33.3375 31.1125C33.375 31.075 33.4125 31.0375 33.4625 31C34.2375 30.4125 34.7875 30.0625 36.275 30.0625C42.2125 30.0625 42.2125 33.2125 42.2125 36V37.25C42.1875 42.025 39.775 44.4375 35 44.4375ZM23.75 31.9375C19.6875 31.9375 19.6875 33.2125 19.6875 36V37.25C19.6875 40.675 19.6875 42.5625 25 42.5625H35C38.725 42.5625 40.3125 40.975 40.3125 37.25V36C40.3125 33.2125 40.3125 31.9375 36.25 31.9375C35.35 31.9375 35.1625 32.05 34.625 32.45L33.4125 33.7375C32.5125 34.6875 31.3 35.2125 30 35.2125C28.7 35.2125 27.4875 34.6875 26.5875 33.7375L25.375 32.45C24.8375 32.05 24.65 31.9375 23.75 31.9375Z" fill="white"/>
<path d="M38.75 31.9375C38.2375 31.9375 37.8125 31.5125 37.8125 31V23.5C37.8125 20.7125 37.8125 19.4375 33.75 19.4375H26.25C22.1875 19.4375 22.1875 20.7125 22.1875 23.5V31C22.1875 31.5125 21.7625 31.9375 21.25 31.9375C20.7375 31.9375 20.3125 31.5125 20.3125 31V23.5C20.3125 20.7125 20.3125 17.5625 26.25 17.5625H33.75C39.6875 17.5625 39.6875 20.7125 39.6875 23.5V31C39.6875 31.5125 39.2625 31.9375 38.75 31.9375Z" fill="white"/>
<path d="M32.35 28.475H28.1875C27.675 28.475 27.25 28.05 27.25 27.5375C27.25 27.025 27.675 26.6 28.1875 26.6H32.35C32.8625 26.6 33.2875 27.025 33.2875 27.5375C33.2875 28.05 32.875 28.475 32.35 28.475Z" fill="white"/>
<path d="M33.4004 24.725H27.1504C26.6379 24.725 26.2129 24.3 26.2129 23.7875C26.2129 23.275 26.6379 22.85 27.1504 22.85H33.4004C33.9129 22.85 34.3379 23.275 34.3379 23.7875C34.3379 24.3 33.9254 24.725 33.4004 24.725Z" fill="white"/>
</svg>
