<svg width="15" height="16" viewBox="0 0 15 16" fill="none" xmlns="http://www.w3.org/2000/svg">
<path d="M9.77976 10.067C9.98934 10.1368 10.2159 10.0236 10.2857 9.81399C10.3556 9.60441 10.2423 9.37789 10.0327 9.30803L9.77976 10.067ZM7.375 8.84375H6.975C6.975 9.01592 7.08517 9.16878 7.24851 9.22322L7.375 8.84375ZM7.775 5.31565C7.775 5.09474 7.59591 4.91565 7.375 4.91565C7.15409 4.91565 6.975 5.09474 6.975 5.31565H7.775ZM10.0327 9.30803L7.50149 8.46428L7.24851 9.22322L9.77976 10.067L10.0327 9.30803ZM7.775 8.84375V5.31565H6.975V8.84375H7.775ZM13.725 8C13.725 11.507 10.882 14.35 7.375 14.35V15.15C11.3238 15.15 14.525 11.9488 14.525 8H13.725ZM7.375 14.35C3.86799 14.35 1.025 11.507 1.025 8H0.225C0.225 11.9488 3.42616 15.15 7.375 15.15V14.35ZM1.025 8C1.025 4.49299 3.86799 1.65 7.375 1.65V0.85C3.42616 0.85 0.225 4.05116 0.225 8H1.025ZM7.375 1.65C10.882 1.65 13.725 4.49299 13.725 8H14.525C14.525 4.05116 11.3238 0.85 7.375 0.85V1.65Z" fill="black"/>
</svg>
