<svg width="20" height="19" viewBox="0 0 20 19" fill="none" xmlns="http://www.w3.org/2000/svg">
<path d="M18.6638 16.271C18.6638 16.271 17.5052 17.409 17.2212 17.7427C16.7587 18.2363 16.2137 18.4693 15.4992 18.4693C15.4305 18.4693 15.3573 18.4693 15.2886 18.4648C13.9284 18.3779 12.6644 17.8478 11.7164 17.3953C9.12431 16.143 6.84819 14.3652 4.95678 12.112C3.3951 10.2336 2.35093 8.49687 1.6594 6.63217C1.23349 5.49415 1.07778 4.6075 1.14647 3.77113C1.19227 3.2364 1.39835 2.79308 1.77847 2.41374L3.34015 0.855256C3.56455 0.64502 3.8027 0.530762 4.03626 0.530762C4.32478 0.530762 4.55835 0.704435 4.7049 0.850686C4.70948 0.855256 4.71406 0.859827 4.71864 0.864397C4.998 1.12491 5.26362 1.39456 5.54298 1.68249C5.68495 1.82874 5.8315 1.97499 5.97805 2.12581L7.22831 3.37351C7.71376 3.85797 7.71376 4.30586 7.22831 4.79032C7.0955 4.92286 6.96727 5.0554 6.83446 5.18337C6.44976 5.57642 6.75196 5.27483 6.35353 5.63132C6.34437 5.64046 6.33521 5.64503 6.33063 5.65417C5.93677 6.04722 6.01005 6.43113 6.09248 6.69164C6.09706 6.70535 6.10164 6.71906 6.10622 6.73277C6.43138 7.51887 6.88935 8.25926 7.58547 9.14134L7.59005 9.14591C8.85404 10.6998 10.1867 11.911 11.6568 12.8387C11.8446 12.9576 12.0369 13.0536 12.2201 13.145C12.385 13.2272 12.5407 13.3049 12.6735 13.3872C12.6918 13.3963 12.7101 13.41 12.7285 13.4192C12.8842 13.4969 13.0307 13.5334 13.1819 13.5334C13.562 13.5334 13.8001 13.2958 13.878 13.2181L14.7757 12.3222C14.9314 12.1668 15.1787 11.9795 15.4672 11.9795C15.7511 11.9795 15.9847 12.1577 16.1267 12.3131C16.1312 12.3177 16.1312 12.3177 16.1358 12.3222L18.6592 14.8405C19.1309 15.3067 18.6638 16.271 18.6638 16.271Z" stroke="white" stroke-linecap="round" stroke-linejoin="round"/>
</svg>
