<svg width="16" height="13" viewBox="0 0 16 13" fill="none" xmlns="http://www.w3.org/2000/svg">
<path d="M1.99967 1.83341L7.18109 5.8634C7.66257 6.23789 8.33678 6.23789 8.81826 5.8634L13.9997 1.83341M3.46634 11.8334H12.533C13.2797 11.8334 13.6531 11.8334 13.9383 11.6881C14.1892 11.5603 14.3932 11.3563 14.521 11.1054C14.6663 10.8202 14.6663 10.4468 14.6663 9.70008V3.30008C14.6663 2.55334 14.6663 2.17998 14.521 1.89476C14.3932 1.64388 14.1892 1.4399 13.9383 1.31207C13.6531 1.16675 13.2797 1.16675 12.533 1.16675H3.46634C2.7196 1.16675 2.34624 1.16675 2.06102 1.31207C1.81014 1.4399 1.60616 1.64388 1.47833 1.89476C1.33301 2.17998 1.33301 2.55334 1.33301 3.30008V9.70008C1.33301 10.4468 1.33301 10.8202 1.47833 11.1054C1.60616 11.3563 1.81014 11.5603 2.06102 11.6881C2.34624 11.8334 2.7196 11.8334 3.46634 11.8334Z" stroke="white"/>
</svg>
