<svg width="16" height="16" viewBox="0 0 16 16" fill="none" xmlns="http://www.w3.org/2000/svg">
<path d="M14.4974 13.0781C14.4974 13.0781 13.6284 13.9316 13.4154 14.1819C13.0685 14.5521 12.6598 14.7269 12.1239 14.7269C12.0724 14.7269 12.0175 14.7269 11.9659 14.7235C10.9458 14.6583 9.99782 14.2607 9.28682 13.9214C7.34274 12.9822 5.63566 11.6488 4.2171 9.95888C3.04584 8.55007 2.26271 7.24753 1.74406 5.849C1.42463 4.99549 1.30784 4.33051 1.35936 3.70323C1.39371 3.30218 1.54828 2.96969 1.83336 2.68518L3.00462 1.51632C3.17292 1.35864 3.35153 1.27295 3.52671 1.27295C3.7431 1.27295 3.91827 1.4032 4.02818 1.51289C4.03162 1.51632 4.03505 1.51975 4.03849 1.52318C4.24801 1.71856 4.44723 1.9208 4.65675 2.13674C4.76322 2.24643 4.87314 2.35612 4.98305 2.46924L5.92074 3.40501C6.28483 3.76836 6.28483 4.10428 5.92074 4.46762C5.82114 4.56702 5.72496 4.66643 5.62535 4.7624C5.33683 5.05719 5.56348 4.831 5.26466 5.09837C5.25779 5.10522 5.25092 5.10865 5.24748 5.11551C4.95209 5.41029 5.00705 5.69823 5.06887 5.89361C5.07231 5.90389 5.07574 5.91417 5.07918 5.92446C5.32305 6.51403 5.66652 7.06933 6.18861 7.73088L6.19205 7.73431C7.14004 8.89975 8.13956 9.8081 9.24212 10.5039C9.38295 10.5931 9.52721 10.665 9.6646 10.7336C9.78825 10.7953 9.90503 10.8536 10.0046 10.9153C10.0184 10.9221 10.0321 10.9324 10.0459 10.9393C10.1626 10.9975 10.2726 11.025 10.3859 11.025C10.671 11.025 10.8496 10.8467 10.908 10.7884L11.5812 10.1166C11.698 10 11.8835 9.85948 12.0999 9.85948C12.3129 9.85948 12.488 9.99316 12.5945 10.1097C12.5979 10.1131 12.5979 10.1131 12.6014 10.1166L14.4939 12.0053C14.8477 12.3549 14.4974 13.0781 14.4974 13.0781Z" stroke="black" stroke-width="0.8" stroke-linecap="round" stroke-linejoin="round"/>
</svg>
