<svg width="78" height="61" viewBox="0 0 78 61" fill="none" xmlns="http://www.w3.org/2000/svg">
<circle cx="48" cy="30" r="29.5" stroke="white" stroke-dasharray="2 2"/>
<circle cx="30" cy="31" r="30" fill="#A13281"/>
<path d="M42.2727 22H31.9227L36.4091 17.065L35.4545 16L30 22L24.5455 16L23.5773 17.065L28.0773 22H17.7273C17.004 22 16.3103 22.3161 15.7988 22.8787C15.2873 23.4413 15 24.2044 15 25V43C15 44.65 16.2273 46 17.7273 46H42.2727C43.7727 46 45 44.65 45 43V25C45 24.2044 44.7127 23.4413 44.2012 22.8787C43.6897 22.3161 42.996 22 42.2727 22ZM42.2727 43H17.7273V25H42.2727V43ZM25.9091 28V40L35.4545 34L25.9091 28Z" fill="white"/>
</svg>
