<svg width="19" height="19" viewBox="0 0 19 19" fill="none" xmlns="http://www.w3.org/2000/svg">
<path d="M12.7169 12.2243C12.9789 12.3117 13.262 12.1701 13.3493 11.9081C13.4367 11.6461 13.2951 11.363 13.0331 11.2757L12.7169 12.2243ZM9.5 10.625H9C9 10.8402 9.13772 11.0313 9.34189 11.0993L9.5 10.625ZM10 5.92087C10 5.64473 9.77614 5.42087 9.5 5.42087C9.22386 5.42087 9 5.64473 9 5.92087H10ZM13.0331 11.2757L9.65811 10.1507L9.34189 11.0993L12.7169 12.2243L13.0331 11.2757ZM10 10.625V5.92087H9V10.625H10ZM18 9.5C18 14.1944 14.1944 18 9.5 18V19C14.7467 19 19 14.7467 19 9.5H18ZM9.5 18C4.80558 18 1 14.1944 1 9.5H0C0 14.7467 4.25329 19 9.5 19V18ZM1 9.5C1 4.80558 4.80558 1 9.5 1V0C4.25329 0 0 4.25329 0 9.5H1ZM9.5 1C14.1944 1 18 4.80558 18 9.5H19C19 4.25329 14.7467 0 9.5 0V1Z" fill="white"/>
</svg>
