<svg width="16" height="17" viewBox="0 0 16 17" fill="none" xmlns="http://www.w3.org/2000/svg">
<path d="M3.91602 6.74837C3.91602 6.12957 4.16182 5.53609 4.59936 5.09847C5.03695 4.66091 5.63041 4.41504 6.24924 4.41504L7.41585 6.74837L6.51756 8.09517C6.87384 8.94666 7.55088 9.62373 8.40234 9.98003L9.74907 9.0817L12.0823 10.2484C12.0823 10.8672 11.8364 11.4607 11.3989 11.8983C10.9613 12.3359 10.3678 12.5817 9.74907 12.5817C8.20203 12.5817 6.71839 11.9672 5.62446 10.8732C4.53053 9.77919 3.91602 8.29548 3.91602 6.74837Z" stroke="#25D367" stroke-width="1.2" stroke-linecap="round" stroke-linejoin="round"/>
<path d="M4.49408 14.5585C5.96436 15.4094 7.69398 15.6967 9.36043 15.3666C11.0269 15.0365 12.5164 14.1115 13.5512 12.7643C14.5861 11.4169 15.0958 9.73928 14.9851 8.044C14.8744 6.34872 14.1511 4.75155 12.9498 3.55024C11.7486 2.34892 10.1514 1.62553 8.45625 1.51487C6.76104 1.40422 5.08346 1.91382 3.73625 2.94876C2.38905 3.98371 1.46416 5.47331 1.13407 7.13977C0.803977 8.8063 1.09114 10.536 1.94212 12.0064L1.02995 14.7298C0.995709 14.8326 0.990693 14.9429 1.0156 15.0484C1.04051 15.1538 1.09423 15.2503 1.17088 15.3268C1.24746 15.4034 1.34388 15.4572 1.44935 15.4821C1.55481 15.507 1.66505 15.502 1.76783 15.4677L4.49408 14.5585Z" stroke="#25D367" stroke-width="1.2" stroke-linecap="round" stroke-linejoin="round"/>
</svg>
