<svg width="78" height="61" viewBox="0 0 78 61" fill="none" xmlns="http://www.w3.org/2000/svg">
<circle cx="48" cy="30" r="29.5" stroke="white" stroke-dasharray="2 2"/>
<circle cx="30" cy="31" r="30" fill="#A13281"/>
<path d="M30 44.4375C22.5875 44.4375 16.5625 38.4125 16.5625 31C16.5625 23.5875 22.5875 17.5625 30 17.5625C37.4125 17.5625 43.4375 23.5875 43.4375 31C43.4375 31.5125 43.0125 31.9375 42.5 31.9375C41.9875 31.9375 41.5625 31.5125 41.5625 31C41.5625 24.625 36.375 19.4375 30 19.4375C23.625 19.4375 18.4375 24.625 18.4375 31C18.4375 37.375 23.625 42.5625 30 42.5625C30.5125 42.5625 30.9375 42.9875 30.9375 43.5C30.9375 44.0125 30.5125 44.4375 30 44.4375Z" fill="white"/>
<path d="M26.2508 43.1875H25.0008C24.4883 43.1875 24.0633 42.7625 24.0633 42.25C24.0633 41.7375 24.4633 41.325 24.9758 41.3125C23.0133 34.6125 23.0133 27.3875 24.9758 20.6875C24.4758 20.675 24.0633 20.2625 24.0633 19.75C24.0633 19.2375 24.4883 18.8125 25.0008 18.8125H26.2508C26.5508 18.8125 26.8383 18.9625 27.0133 19.2C27.1883 19.45 27.2383 19.7625 27.1383 20.05C24.7883 27.1125 24.7883 34.9 27.1383 41.9625C27.2383 42.25 27.1883 42.5625 27.0133 42.8125C26.8383 43.0625 26.5508 43.1875 26.2508 43.1875Z" fill="white"/>
<path d="M35.5751 31.9376C35.0626 31.9376 34.6376 31.5126 34.6376 31.0001C34.6376 27.2751 34.0376 23.5876 32.8626 20.0501C32.7001 19.5626 32.9626 19.025 33.4501 18.8625C33.9376 18.7 34.4751 18.9626 34.6376 19.4501C35.8751 23.1751 36.5126 27.0626 36.5126 31.0001C36.5126 31.5126 36.0876 31.9376 35.5751 31.9376Z" fill="white"/>
<path d="M30 37.5125C26.5 37.5125 23.0375 37.0125 19.6875 36.025C19.675 36.525 19.2625 36.9375 18.75 36.9375C18.2375 36.9375 17.8125 36.5125 17.8125 36V34.75C17.8125 34.45 17.9625 34.1625 18.2 33.9875C18.4375 33.8125 18.7625 33.7625 19.05 33.8625C22.5875 35.0375 26.275 35.6375 30 35.6375C30.5125 35.6375 30.9375 36.0625 30.9375 36.575C30.9375 37.0875 30.5125 37.5125 30 37.5125Z" fill="white"/>
<path d="M41.2499 28.1875C41.1499 28.1875 41.0499 28.175 40.9499 28.1375C33.8874 25.7875 26.0999 25.7875 19.0374 28.1375C18.5499 28.3 18.0124 28.0375 17.8499 27.55C17.6874 27.0625 17.9499 26.525 18.4374 26.3625C25.8874 23.875 34.0874 23.875 41.5249 26.3625C42.0124 26.525 42.2749 27.0625 42.1124 27.55C42.0124 27.9375 41.6374 28.1875 41.2499 28.1875Z" fill="white"/>
<path d="M34.7754 44.4375C34.3004 44.4375 33.8504 44.2625 33.5254 43.9375C33.1379 43.55 32.9629 42.9875 33.0504 42.4L33.2879 40.7126C33.3504 40.2751 33.6129 39.75 33.9254 39.4375L38.3504 35.0126C38.9504 34.4126 39.5379 34.1 40.1754 34.0375C40.9629 33.9625 41.7254 34.2876 42.4504 35.0126C43.1754 35.7376 43.5004 36.5001 43.4254 37.2876C43.3629 37.9126 43.0379 38.5125 42.4504 39.1125L38.0254 43.5376C37.7129 43.8501 37.2004 44.1125 36.7629 44.175L35.0754 44.4125C34.9629 44.425 34.8754 44.4375 34.7754 44.4375ZM40.3879 35.9C40.3754 35.9 40.3629 35.9 40.3504 35.9C40.1754 35.9125 39.9379 36.0626 39.6754 36.3376L35.2504 40.7625C35.2129 40.8 35.1504 40.925 35.1504 40.975L34.9254 42.5375L36.4879 42.3125C36.5379 42.3 36.6629 42.2376 36.7004 42.2001L41.1254 37.775C41.3879 37.5125 41.5504 37.275 41.5629 37.1C41.5879 36.85 41.3379 36.5501 41.1254 36.3376C40.9254 36.1376 40.6379 35.9 40.3879 35.9Z" fill="white"/>
<path d="M41.1498 40.0249C41.0623 40.0249 40.9748 40.0125 40.8998 39.9875C39.2498 39.525 37.9373 38.2125 37.4748 36.5625C37.3373 36.0625 37.6248 35.55 38.1248 35.4125C38.6248 35.275 39.1372 35.5624 39.2872 36.0624C39.5747 37.0874 40.3873 37.9 41.4123 38.1875C41.9123 38.325 42.1997 38.8499 42.0622 39.3374C41.9372 39.7499 41.5623 40.0249 41.1498 40.0249Z" fill="white"/>
</svg>
