<svg width="92" height="92" viewBox="0 0 92 92" fill="none" xmlns="http://www.w3.org/2000/svg">
<path d="M62.8718 49.7942L62.3262 48.9561L62.3123 48.9652L62.2986 48.9747L62.8718 49.7942ZM62.8718 43.3434L62.2788 44.1486L62.3235 44.1815L62.3714 44.2092L62.8718 43.3434ZM37.0183 24.3061L37.6112 23.5008L37.583 23.4801L37.5534 23.4613L37.0183 24.3061ZM31.5983 27.1496L32.5983 27.1467L32.5983 27.1379L32.5981 27.1291L31.5983 27.1496ZM31.7067 64.5451L30.7067 64.548L30.7068 64.5763L30.7085 64.6045L31.7067 64.5451ZM37.3254 67.6614L37.8097 68.5363L37.8556 68.5109L37.8986 68.4808L37.3254 67.6614ZM46 90C21.6995 90 2 70.3005 2 46H0C0 71.4051 20.5949 92 46 92V90ZM90 46C90 70.3005 70.3005 90 46 90V92C71.4051 92 92 71.4051 92 46H90ZM46 2C70.3005 2 90 21.6995 90 46H92C92 20.5949 71.4051 0 46 0V2ZM46 0C20.5949 0 0 20.5949 0 46H2C2 21.6995 21.6995 2 46 2V0ZM63.4174 50.6323C65.1522 49.5029 66.3491 48.1043 66.3469 46.4742C66.3447 44.8217 65.1172 43.486 63.3721 42.4775L62.3714 44.2092C63.9205 45.1044 64.3462 45.918 64.3469 46.4769C64.3477 47.0583 63.8976 47.9332 62.3262 48.9561L63.4174 50.6323ZM63.4647 42.5381L37.6112 23.5008L36.4254 25.1113L62.2788 44.1486L63.4647 42.5381ZM37.5534 23.4613C36.0287 22.4955 34.2877 22.1876 32.8532 22.8574C31.3634 23.553 30.5569 25.1303 30.5985 27.17L32.5981 27.1291C32.5674 25.6282 33.131 24.9349 33.6993 24.6696C34.3229 24.3784 35.328 24.4191 36.4832 25.1509L37.5534 23.4613ZM30.5983 27.1525L30.7067 64.548L32.7067 64.5422L32.5983 27.1467L30.5983 27.1525ZM30.7085 64.6045C30.8303 66.6507 31.4898 68.3253 32.9271 69.0929C34.3541 69.855 36.1013 69.4817 37.8097 68.5363L36.8412 66.7864C35.3397 67.6174 34.392 67.6079 33.8693 67.3287C33.3569 67.0551 32.8119 66.2833 32.7049 64.4856L30.7085 64.6045ZM37.8986 68.4808L63.4449 50.6137L62.2986 48.9747L36.7523 66.8419L37.8986 68.4808Z" fill="white"/>
</svg>
